<?xml version="1.0" standalone="no"?>
<!DOCTYPE svg PUBLIC "-//W3C//DTD SVG 1.1//EN" "http://www.w3.org/Graphics/SVG/1.1/DTD/svg11.dtd" >
<svg xmlns="http://www.w3.org/2000/svg">
<metadata></metadata>
<defs>
<font id="berthold_akzidenz_grotessuper" horiz-adv-x="1323" >
<font-face units-per-em="2048" ascent="1638" descent="-410" />
<missing-glyph horiz-adv-x="641" />
<glyph horiz-adv-x="2048" />
<glyph horiz-adv-x="2048" />
<glyph unicode="&#xd;" horiz-adv-x="681" />
<glyph unicode=" "  horiz-adv-x="641" />
<glyph unicode="&#x09;" horiz-adv-x="641" />
<glyph unicode="&#xa0;" horiz-adv-x="641" />
<glyph unicode="!" horiz-adv-x="598" d="M154 0v385h372v-385h-372zM154 1059v387h372v-391l-80 -527h-206z" />
<glyph unicode="&#x22;" horiz-adv-x="811" d="M47 1397q0 68 47 102.5t107 34.5q57 0 97 -35t40 -92q0 -6 -1 -18.5t-1 -16.5l-109 -536h-65l-111 512q-4 33 -4 49zM473 1399q0 59 44 97t110 38q57 0 97 -35t40 -92q0 -25 -2 -35l-109 -536h-63l-113 512q-4 33 -4 51z" />
<glyph unicode="#" horiz-adv-x="1366" d="M86 381v252h229l27 196h-205v254h240l51 361h254l-51 -361h205l49 361h256l-49 -361h186v-254h-223l-25 -196h201v-252h-238l-53 -381h-258l55 381h-202l-54 -381h-254l52 381h-193zM569 633h203l29 196h-205z" />
<glyph unicode="$" horiz-adv-x="1366" d="M49 147l217 259q94 -61 160 -88t174 -39v270q-193 45 -278.5 75.5t-147.5 92.5q-102 102 -102 260q0 172 116 293q61 66 147.5 102.5t134.5 44t130 13.5v133h195v-140q158 -20 243.5 -52t202.5 -105l-211 -250q-74 53 -117 71.5t-118 26.5v-229q170 -20 290 -82 q240 -127 240 -361q0 -180 -121 -305q-55 -59 -137 -96t-133 -46t-139 -22v-204h-195v204q-217 25 -315.5 57.5t-235.5 116.5zM461 1014q0 -33 25.5 -53.5t46 -26.5t67.5 -14v200q-33 -4 -53 -10q-86 -27 -86 -96zM795 283q33 8 49 14q90 35 90 115q0 35 -21.5 57.5 t-46 30.5t-71.5 18v-235z" />
<glyph unicode="%" horiz-adv-x="2048" d="M41 942q0 233 129 369q107 110 285 110q98 0 157 -22q102 -39 171 -150.5t69 -285.5q0 -205 -104.5 -344.5t-307.5 -139.5q-193 0 -296 127t-103 336zM326 950q0 -63 2 -99t12 -81t36.5 -66.5t67.5 -21.5q70 0 96.5 66.5t26.5 209.5q0 133 -24 200t-90 69 q-45 0 -73 -26.5t-39 -79t-13 -86.5t-2 -85zM625 0l618 1446h189l-619 -1446h-188zM1190 444q0 231 129 367q107 111 285 111q98 0 157 -23q102 -39 171 -150.5t69 -283.5q0 -207 -103.5 -346t-308.5 -139q-193 0 -296 128t-103 336zM1475 451q0 -63 2 -99.5t12 -81.5 t36.5 -66.5t67.5 -21.5q70 0 96.5 67.5t26.5 211.5q0 133 -24 198.5t-90 67.5q-45 0 -73 -26.5t-39 -79t-13 -86t-2 -84.5z" />
<glyph unicode="&#x26;" horiz-adv-x="1409" d="M35 436q0 184 131 312q74 74 205 133q-96 133 -97 266q0 29 5.5 59.5t29 79.5t64.5 85t120.5 62.5t188.5 26.5q221 0 328 -110q78 -82 77 -209q0 -147 -112 -258q-61 -61 -172 -111q94 -117 174 -205q37 92 51 181l309 -115q-49 -145 -73.5 -200.5t-67.5 -125.5 q78 -33 123 -33q32 1 63 7v-279q-111 -12 -165 -12q-109 0 -160 20.5t-99 65.5q-178 -106 -385 -107q-262 0 -417 162q-121 123 -121 305zM420 442q0 -68 47 -125t137 -57q72 0 158 45q-117 141 -236 307q-33 -25 -51 -42t-36.5 -52t-18.5 -76zM586 1135q-1 -50 67 -140 q90 53 111 88q14 23 14 47q0 10 -3 24.5t-27.5 37t-69.5 22.5q-92 0 -92 -79z" />
<glyph unicode="'" horiz-adv-x="425" d="M68 1399q0 63 47 99t108 36q18 0 35.5 -4t29 -10.5t23 -13.5t16.5 -13t9 -12l6 -6q18 -31 14 -103l-108 -536h-66l-110 512q-4 33 -4 51z" />
<glyph unicode="(" horiz-adv-x="724" d="M47 586q0 104 19.5 203.5t46 174t75 153.5t84 128t99 112.5t95.5 92.5t93 82l141 -133q-59 -72 -89.5 -111t-81 -118.5t-76 -151.5t-46 -180.5t-20.5 -231.5q0 -254 84 -454q78 -189 242 -332l-127 -158q-113 84 -177.5 138.5t-149.5 162t-136 230.5q-76 180 -76 393z " />
<glyph unicode=")" horiz-adv-x="724" d="M12 1374l127 158q86 -63 133 -102t118 -108t123 -147.5t91 -173.5q74 -182 74 -393q0 -104 -19.5 -203.5t-46 -174t-75 -153.5t-84 -128t-99 -112.5t-95.5 -92.5t-93 -82l-141 133q61 74 89.5 111t81 118.5t77 152.5t45 179.5t20.5 231.5q0 254 -84 454q-78 189 -242 332 z" />
<glyph unicode="*" horiz-adv-x="724" d="M31 1147l57 174l176 -61v194h182v-184l181 69l65 -172l-196 -75l133 -158l-146 -111l-127 158l-108 -156l-148 107l109 155z" />
<glyph unicode="+" horiz-adv-x="1366" d="M86 467v260h469v465h260v-465h465v-260h-465v-467h-260v467h-469z" />
<glyph unicode="," horiz-adv-x="512" d="M70 0v385h372v-295q-2 -78 -6 -121t-27.5 -107.5t-70.5 -111.5q-39 -39 -89 -62.5t-82 -30.5t-97 -19v180q57 18 86.5 52t34 59.5t6.5 70.5h-127z" />
<glyph unicode="-" horiz-adv-x="681" d="M78 473v350h524v-350h-524z" />
<glyph unicode="." horiz-adv-x="512" d="M70 0v385h372v-385h-372z" />
<glyph unicode="/" horiz-adv-x="1024" d="M2 0l621 1446h395l-617 -1446h-399z" />
<glyph unicode="0" d="M41 678q0 330 163 545t478 211q137 -2 244.5 -50.5t171 -121t105.5 -170t57.5 -188.5t15.5 -185q0 -139 -34 -267t-105.5 -241t-198.5 -180.5t-295 -67.5q-270 0 -436 190.5t-166 524.5zM459 655q0 -143 18 -227q43 -176 180 -176q203 0 203 430q0 199 -24 305 q-39 168 -170 168q-92 0 -146 -88q-61 -104 -61 -412z" />
<glyph unicode="1" d="M225 899v318q135 -6 211 28q49 20 82 53t43 54.5t23 54.5h364v-1407h-422v934q-51 -20 -103.5 -26.5t-197.5 -8.5z" />
<glyph unicode="2" d="M55 0v266q289 188 484 340q168 133 222 210t54 151q0 25 -5 47t-19.5 52t-51.5 48.5t-92 18.5q-180 0 -180 -209q0 -50 14 -103l-415 49q4 90 10 140.5t35.5 129.5t83.5 134q147 154 487 153q301 0 440 -141q119 -117 119 -311q0 -141 -73.5 -256t-233.5 -225 q-74 -51 -285 -172l142 4l75 2h357v-328h-1168z" />
<glyph unicode="3" d="M6 422l391 74q14 -127 66 -177q59 -59 174 -59q106 0 162 53q45 45 45 123q0 150 -236 150q-49 0 -104 -11v279q45 -6 92 -6q231 0 231 151q0 57 -41 103.5t-147 46.5q-59 0 -99 -20.5t-59.5 -58.5t-27 -63.5t-13.5 -66.5l-387 23q12 74 21.5 111.5t38 98t71.5 105.5 q152 154 480 154q317 0 466 -152q96 -98 97 -244q0 -76 -22.5 -133t-63.5 -91t-70 -50.5t-70 -32.5q37 -10 60.5 -18.5t69 -33t72 -55t48 -85t21.5 -121.5q0 -172 -115 -291q-152 -154 -524 -154q-338 0 -494 160q-41 43 -68.5 97.5t-39 90t-25.5 103.5z" />
<glyph unicode="4" d="M39 293v278l639 838h418v-838h180v-278h-180v-293h-402v293h-655zM377 571h317l4 381q2 27 7 76q0 -8 -91 -135z" />
<glyph unicode="5" d="M33 426l418 43q0 -70 10 -102q37 -119 176 -119q104 0 156.5 63.5t52.5 155.5q0 98 -55.5 158.5t-159.5 60.5q-53 0 -91 -17.5t-50.5 -31.5t-30.5 -41l-350 43l77 762h1045l-31 -293h-715l-20 -199q29 16 43 23q98 39 229 39q231 0 384 -132t153 -341q0 -217 -148 -365 q-164 -168 -491 -168q-309 0 -469 162q-43 45 -70.5 99.5t-38 92t-24.5 107.5z" />
<glyph unicode="6" d="M37 664q0 274 110 466q180 303 572 304q119 0 213 -30t145 -65.5t92 -95t53.5 -91.5t26.5 -81l-399 -61q-8 68 -43 104q-49 45 -121 45q-94 0 -168 -74q-39 -41 -60.5 -97t-25.5 -95t-6 -109q14 20 33 39q53 51 147 80t185 29q213 0 353 -131t140 -340 q0 -227 -172 -361.5t-430 -134.5q-293 0 -463 164q-182 172 -182 535zM463 450.5q0 -92.5 58.5 -152.5t150.5 -60q88 0 148.5 56t60.5 159q0 98 -56.5 155.5t-146.5 57.5q-98 0 -156.5 -61.5t-58.5 -154z" />
<glyph unicode="7" d="M88 1092v319h1129v-268q-78 -82 -118 -129t-103.5 -144.5t-121.5 -218.5q-59 -127 -98 -251t-54 -196.5t-36 -203.5h-440q74 305 190 553q125 260 330 539h-678z" />
<glyph unicode="8" d="M37 397q0 90 37 164q61 123 207 180q-49 29 -86 64q-86 86 -86 223q0 86 38 160q119 240 517 239q197 0 317 -49q242 -98 242 -344q0 -84 -32 -148.5t-58.5 -88t-71.5 -54.5q94 -47 125 -81q96 -92 96 -252q0 -162 -113 -275q-164 -164 -510 -164q-172 0 -280 33 q-154 43 -248 146.5t-94 246.5zM449 412q0 -18 5 -39t22.5 -56.5t63.5 -58t115 -22.5q111 0 164 54t53 124q0 66 -50 124t-162.5 56t-161.5 -57.5t-49 -124.5zM479 1016q0 -55 47 -101.5t139.5 -46.5t135.5 45t43 101q0 29 -8.5 55.5t-52 57t-117.5 30.5q-96 4 -144 -41 q-43 -39 -43 -100z" />
<glyph unicode="9" d="M35 938q0 227 173 361.5t429 134.5q137 0 260 -43t203 -121q182 -174 182 -535q0 -274 -111 -467q-180 -303 -571 -303q-119 0 -213 30t-145.5 65.5t-92 95t-53 92.5t-26.5 82l399 59q8 -68 43 -102q47 -47 121 -47q94 0 168 73q39 41 60.5 97.5t25.5 95.5t6 108 q-16 -20 -33 -39q-53 -51 -147.5 -79.5t-184.5 -28.5q-213 0 -353 131t-140 340zM438 946q0 -98 56.5 -155.5t146.5 -57.5q98 0 156.5 61.5t58.5 153.5t-58.5 152.5t-150.5 60.5q-88 0 -148.5 -56t-60.5 -159z" />
<glyph unicode=":" horiz-adv-x="598" d="M152 0v385h372v-385h-372zM152 676v385h372v-385h-372z" />
<glyph unicode=";" horiz-adv-x="598" d="M152 0v385h372v-295q-2 -78 -6 -121t-27.5 -107.5t-70.5 -111.5q-39 -39 -89 -62.5t-82 -30.5t-97 -19v180q57 18 86.5 52t33.5 59.5t7 70.5h-127zM152 676v385h372v-385h-372z" />
<glyph unicode="&#x3c;" horiz-adv-x="1366" d="M0 592v254l1366 606v-285l-1001 -448l1001 -443v-282z" />
<glyph unicode="=" horiz-adv-x="1366" d="M0 252v260h1366v-260h-1366zM0 682v258h1366v-258h-1366z" />
<glyph unicode="&#x3e;" horiz-adv-x="1366" d="M0 -6v282l1001 443l-1001 448v285l1366 -606v-254z" />
<glyph unicode="?" horiz-adv-x="1236" d="M92 1083q14 49 24.5 75t40 74t74.5 89q158 150 439 149q299 0 444 -145q102 -106 103 -248q0 -182 -164 -295q-29 -20 -86.5 -58t-81.5 -56q-47 -35 -73 -60.5t-31 -40t-11 -39.5h-354q6 61 14 95t47 89.5t115 112.5q12 10 38.5 29.5t41.5 30.5q129 90 129 178 q0 45 -38 88t-116 43q-178 0 -205 -227zM403 0v385h375v-385h-375z" />
<glyph unicode="@" horiz-adv-x="1835" d="M141 487q0 258 122 480.5t340 356.5t478 134q158 0 280 -52t192.5 -140t105.5 -188.5t35 -207.5q0 -293 -148.5 -514t-339.5 -221q-104 0 -155 70q-16 20 -29 71q-33 -37 -53.5 -57t-80 -51t-122.5 -31q-102 0 -180 66q-104 88 -105 280q0 223 128 405.5t319 182.5 q59 0 106 -23.5t64.5 -44t42.5 -55.5l18 80h187l-70 -323q-55 -279 -55 -330q0 -66 39 -66q45 0 105 71t108.5 203t48.5 273q0 121 -42 210t-112 137t-146.5 70.5t-158.5 22.5q-297 0 -525.5 -241.5t-228.5 -565.5q0 -135 44 -241.5t109.5 -168t151.5 -102t163 -55 t151 -14.5q123 0 232.5 29.5t199.5 88t132 91.5t103 90l97 -125q-61 -59 -112.5 -99t-151 -103.5t-223.5 -98.5t-261 -35q-102 0 -205.5 20.5t-213 75t-193.5 135t-137.5 213t-53.5 297.5zM692 494q0 -49 13.5 -85t30 -52.5t38 -25.5t30.5 -10.5t17 -1.5q96 0 175 127.5 t77 270.5q0 84 -42 128t-97 44q-100 0 -171 -126t-71 -269z" />
<glyph unicode="A" horiz-adv-x="1622" d="M-2 0l553 1446h520l541 -1446h-492l-63 201h-504l-64 -201h-491zM651 524h312l-154 510z" />
<glyph unicode="B" horiz-adv-x="1492" d="M90 0v1446h856q260 -12 367 -117q98 -92 98 -250q0 -152 -102 -254q-37 -37 -123 -77q113 -31 170 -89q96 -94 96 -245q0 -188 -106 -295q-49 -51 -124 -79t-121 -33t-126 -7h-885zM545 311h286q84 4 119 43q37 37 37 95q0 135 -166 143h-276v-281zM547 895h252 q149 0 149 119q0 121 -139 127h-262v-246z" />
<glyph unicode="C" horiz-adv-x="1536" d="M55 715q0 147 49.5 286.5t140.5 251t237.5 179t322.5 67.5q352 0 579 -233q68 -70 121 -170l-383 -191q-18 45 -36.5 76t-53.5 74t-88 66.5t-121 23.5q-117 0 -194 -78q-109 -104 -109 -326q0 -180 74 -298.5t231 -118.5h2q212 0 291 237l389 -188q-72 -135 -141 -205 q-215 -213 -561 -213q-186 0 -333.5 65.5t-236 176t-134.5 242.5t-46 276z" />
<glyph unicode="D" horiz-adv-x="1536" d="M90 0v1446h492q156 -2 228.5 -5t173.5 -18.5t170 -50.5t130 -92q201 -186 201 -551q0 -160 -39 -294t-133 -241.5t-234 -154.5q-117 -39 -387 -39h-602zM549 332h174q45 2 67.5 5t59.5 18.5t65 43.5q109 102 109 324q0 117 -37 213q-23 57 -53.5 94t-71.5 52.5 t-67.5 19.5t-73.5 6h-172v-776z" />
<glyph unicode="E" d="M88 0v1446h1145v-318h-686v-215h641v-313h-641v-287h747v-313h-1206z" />
<glyph unicode="F" horiz-adv-x="1280" d="M90 0v1446h1145v-320h-688v-260h643v-311h-643v-555h-457z" />
<glyph unicode="G" horiz-adv-x="1622" d="M55 715q0 330 206 560t566 230q166 0 323 -56t261 -161q86 -84 139 -229l-409 -115q-23 96 -66 139q-76 76 -213 76q-141 0 -229 -84q-113 -104 -113 -342q0 -219 109 -330q92 -96 245 -96q141 0 218 78q35 37 55 125h-268v291h663v-799h-342v100q-186 -139 -434 -139 q-150 0 -272 51q-49 20 -99.5 51t-114 90.5t-111.5 133t-81 185.5t-33 241z" />
<glyph unicode="H" horiz-adv-x="1536" d="M90 0v1446h457v-526h436v526h461v-1446h-461v557h-436v-557h-457z" />
<glyph unicode="I" horiz-adv-x="641" d="M90 0v1446h459v-1446h-459z" />
<glyph unicode="J" horiz-adv-x="854" d="M0 0v356q49 -12 119 -12q111 0 146.5 40t37.5 126v938h457v-1047q-2 -66 -5 -104.5t-24.5 -98t-60.5 -100.5q-45 -43 -118 -66.5t-119 -26.5t-128 -5h-305z" />
<glyph unicode="K" horiz-adv-x="1579" d="M90 0v1446h457v-547l454 547h560l-504 -549l538 -897h-514l-319 578l-213 -236v-342h-459z" />
<glyph unicode="L" horiz-adv-x="1110" d="M90 0v1448h457v-1083h559v-365h-1016z" />
<glyph unicode="M" horiz-adv-x="1961" d="M88 0v1446h653l179 -668q37 -158 59 -307q27 184 68 354l163 621h656v-1446h-436v836q2 100 12 256q-33 -139 -58 -234l-239 -858h-340l-223 813q-43 164 -68 270q8 -121 8 -194v-889h-434z" />
<glyph unicode="N" horiz-adv-x="1579" d="M90 0v1446h485l326 -547q100 -186 176 -354q-14 162 -18 334v567h428v-1446h-492l-293 500q-100 172 -200 381q12 -156 14 -295v-586h-426z" />
<glyph unicode="O" horiz-adv-x="1662" d="M53 721q0 330 202.5 554t575.5 224q205 0 361 -69.5t243 -184.5t129 -243t42 -265q0 -145 -44 -278t-133.5 -250t-246 -186.5t-359.5 -69.5q-170 0 -306 49t-221 126t-141.5 180.5t-79 205.5t-22.5 207zM512 723q0 -193 80 -298.5t239 -105.5q141 0 227.5 110t86.5 308 q0 117 -27 191q-25 70 -66.5 116t-90 63t-76 22.5t-54.5 5.5q-137 0 -228 -101.5t-91 -310.5z" />
<glyph unicode="P" horiz-adv-x="1449" d="M90 0v1448h828q100 -4 155 -11t128 -37t128 -87q121 -127 121 -338q0 -227 -137 -369q-57 -59 -130 -90t-127.5 -37t-154.5 -8h-352v-471h-459zM549 774h262q59 4 76 10q110 35 110 174q0 62 -19.5 101t-56 55t-58 21.5t-56.5 7.5h-258v-369z" />
<glyph unicode="Q" horiz-adv-x="1662" d="M55 725q0 356 221 571q207 205 566 205q340 0 540 -198q109 -106 166.5 -254t57.5 -308q0 -100 -25 -213q-35 -143 -127 -280q80 -53 125 -74t104 -27l-139 -317q-111 20 -190.5 58t-167.5 137q-174 -72 -369 -72q-199 0 -351.5 66.5t-239.5 180t-129 246t-42 279.5z M518 717q0 -188 78 -293t229 -105q139 0 227.5 105.5t88.5 314.5t-91 303q-88 93 -216 93h-5q-125 0 -206 -88q-104 -113 -105 -330z" />
<glyph unicode="R" horiz-adv-x="1449" d="M90 0v1448h721q248 0 356 -45q131 -55 190.5 -174t59.5 -244q0 -178 -110 -291q-55 -59 -187 -110l353 -584h-508l-281 510h-135v-510h-459zM549 807h190q41 0 69 4t69 18.5t62.5 51.5t21.5 94t-21.5 95t-62.5 52.5t-70 18.5t-70 4h-188v-338z" />
<glyph unicode="S" horiz-adv-x="1492" d="M14 274l351 226q27 -41 44 -62.5t57 -49.5t99 -46q94 -33 203 -33q25 0 51.5 3t69.5 12.5t69.5 33t26.5 60.5q0 63 -80 90q-31 10 -196.5 43t-180.5 37q-68 18 -120 39.5t-122.5 67.5t-110.5 127t-40 188q0 98 41 186q68 152 228.5 224.5t369.5 72.5q252 0 436 -92 q104 -51 213 -164l-286 -240q-49 61 -111 95q-109 53 -268 53q-164 0 -164 -94q0 -47 45 -70t154 -41q90 -16 138 -25.5t127 -30t123 -41t99 -56t84 -78.5t49.5 -103.5t20.5 -136.5q0 -193 -129 -326q-182 -186 -553 -186q-188 0 -336 43q-104 31 -192.5 86t-125.5 93 t-84 95z" />
<glyph unicode="T" horiz-adv-x="1193" d="M0 1090v358h1190v-358h-367v-1090h-456v1090h-367z" />
<glyph unicode="U" horiz-adv-x="1492" d="M86 586v860h459v-903q0 -123 53 -174q51 -53 145 -54q90 0 146 52q55 53 55 176v903h461v-770q0 -86 -3 -136.5t-17.5 -132t-52.5 -149.5t-97 -125q-182 -172 -496 -172q-156 0 -289 47t-214 125q-68 66 -102 152t-40 141.5t-8 159.5z" />
<glyph unicode="V" horiz-adv-x="1449" d="M0 1446h467l172 -574q57 -197 84 -385q27 164 76 338l182 621h469l-489 -1446h-478z" />
<glyph unicode="W" horiz-adv-x="2134" d="M-4 1446h446l142 -631q45 -209 63 -379q33 209 72 381l149 629h387l158 -629q45 -188 68 -379q23 172 61 367l144 641h444l-361 -1446h-489l-131 524q-53 223 -90 449q-25 -195 -72 -406l-139 -567h-492z" />
<glyph unicode="X" horiz-adv-x="1705" d="M-4 0l559 776l-469 670h537l229 -397l233 397h523l-457 -668l555 -778h-541l-313 520l-320 -520h-536z" />
<glyph unicode="Y" horiz-adv-x="1622" d="M-6 1446h528l283 -481l278 481h531l-584 -838v-608h-457v608z" />
<glyph unicode="Z" horiz-adv-x="1366" d="M4 0v289l741 811h-698v346h1292v-295l-729 -799h727v-352h-1333z" />
<glyph unicode="[" horiz-adv-x="724" d="M84 -250v1698h614v-231h-274v-1235h274v-232h-614z" />
<glyph unicode="\" horiz-adv-x="1024" d="M2 1446h399l617 -1446h-395z" />
<glyph unicode="]" horiz-adv-x="724" d="M25 -18h274v1235h-274v231h614v-1698h-614v232z" />
<glyph unicode="^" horiz-adv-x="1492" d="M233 637l416 809h213l398 -809h-283l-225 473l-238 -473h-281z" />
<glyph unicode="_" horiz-adv-x="1024" d="M-20 -154h1064v-102h-1064v102z" />
<glyph unicode="`" horiz-adv-x="641" d="M25 1483h436l155 -281h-260z" />
<glyph unicode="a" horiz-adv-x="1236" d="M39 317q0 137 90 228q66 68 148.5 92.5t248.5 46.5q135 18 226 45q-2 61 -31 91t-113 30q-72 0 -99.5 -20.5t-37.5 -77.5l-395 -11q8 45 16 73t27.5 70t56.5 76.5t90 63.5q139 72 381 72q104 0 186 -15.5t134.5 -38t89.5 -60.5t54 -67.5t27.5 -74.5t11.5 -68.5t1 -62.5 v-578q0 -51 7 -74.5t30 -56.5h-416v82q-154 -106 -350 -107q-188 0 -285.5 98.5t-97.5 243.5zM430 330q0 -29 25.5 -55.5t79.5 -26.5q51 0 110.5 31.5t83.5 89.5q21 45 21 125q-82 -29 -125 -41q-76 -18 -109 -29q-86 -35 -86 -94z" />
<glyph unicode="b" horiz-adv-x="1280" d="M84 0v1446h422v-459q111 104 270 105q190 0 326.5 -138.5t136.5 -398.5q0 -258 -128 -420t-351 -162q-88 0 -158 27q-61 23 -108 78v-78h-410zM496 535q0 -84 14 -132q14 -51 47 -81.5t56.5 -36.5t43.5 -6q66 0 107 45q59 63 59 208q0 70 -12 125q-37 133 -152 134 q-59 0 -106 -48q-57 -61 -57 -208z" />
<glyph unicode="c" horiz-adv-x="1150" d="M37 539q0 254 151 409q156 162 439 162q272 0 436 -166q43 -43 84 -110l-322 -183q-45 162 -178 162q-92 0 -142 -81t-50 -206q0 -243 181 -243h1q45 0 80 18t56.5 52t31.5 54.5t20 53.5l322 -176q-47 -100 -103 -156q-164 -170 -442 -170q-260 0 -412.5 160t-152.5 420z " />
<glyph unicode="d" horiz-adv-x="1280" d="M39 555q0 260 136 398.5t327 138.5q74 0 133 -20.5t81.5 -37t55.5 -47.5v459h422v-1446h-410v78q-47 -55 -108 -78q-70 -27 -160 -27q-221 0 -349 163t-128 419zM455 532q0 -145 59 -208q41 -45 107 -45q59 0 106 47q55 57 55 209q0 84 -16 133q-20 68 -64.5 95.5 t-83.5 27.5q-115 0 -151 -134q-12 -55 -12 -125z" />
<glyph unicode="e" horiz-adv-x="1236" d="M35 535q0 258 161.5 413.5t421.5 155.5q262 0 426 -158q55 -55 90 -114.5t48.5 -132t17.5 -116.5t6 -128h-741q4 -102 51 -150q49 -49 127 -49q123 0 193 137l348 -145q-190 -291 -563 -291q-279 0 -432.5 169t-153.5 409zM469 678h307q0 6 -1 15t-2 17.5t-3 16.5 q-12 53 -53 81t-88 28q-45 0 -77 -16.5t-48.5 -47.5t-22.5 -48t-12 -46z" />
<glyph unicode="f" horiz-adv-x="768" d="M-2 807v229h158v107q2 55 5 81.5t21.5 69.5t50.5 76q94 100 314 100q84 0 221 -26v-289q-39 14 -78 14q-53 0 -79.5 -24.5t-29.5 -46t-3 -62.5h190v-229h-190v-807h-422v807h-158z" />
<glyph unicode="g" horiz-adv-x="1280" d="M37 565q0 90 22.5 174t73.5 167t154.5 133.5t249.5 50.5q170 0 256 -86q23 -18 36 -43l-2 100h365v-1000q-2 -63 -7 -102t-24.5 -99.5t-66.5 -107.5t-119 -82q-145 -69 -380 -69h-7q-209 0 -334 43q-72 25 -118 64.5t-64.5 94t-23.5 89.5t-7 94h383q0 -25 3 -42.5 t17.5 -42t51 -38t94.5 -13.5q109 0 158 48q18 18 28 45.5t11 50t1 67.5q0 68 3 101q-8 -12 -25 -33q-76 -76 -252 -76q-231 0 -354 142.5t-123 369.5zM438 553q0 -221 166 -221q59 0 98 24.5t53.5 67.5t18.5 73.5t4 73.5q0 228 -164 228q-49 0 -84.5 -22.5t-53 -51.5 t-27 -70t-10.5 -60.5t-1 -41.5z" />
<glyph unicode="h" d="M84 0v1448h420v-494q33 39 58.5 63.5t103 56.5t178.5 32q188 0 295 -107q41 -43 63.5 -103t26.5 -97t6 -105v-694h-420v606q-2 29 -5 45.5t-15.5 46t-46 45t-84.5 15.5q-158 0 -158 -160v-598h-422z" />
<glyph unicode="i" horiz-adv-x="598" d="M86 0v1061h422v-1061h-422zM86 1165v281h422v-281h-422z" />
<glyph unicode="j" horiz-adv-x="598" d="M-70 -88q12 -1 23 -1q70 0 100 23q35 25 35 91v1038h422v-1047q-2 -98 -4 -140t-18.5 -90t-49.5 -83q-49 -49 -147 -72.5t-171 -25.5q-36 -1 -84 -1t-106 1v307zM88 1165v281h422v-281h-422z" />
<glyph unicode="k" d="M82 0v1446h424v-688l287 303h516l-404 -383l422 -678h-481l-232 403l-110 -106v-297h-422z" />
<glyph unicode="l" horiz-adv-x="598" d="M84 0v1446h424v-1446h-424z" />
<glyph unicode="m" horiz-adv-x="2048" d="M86 -2v1061h403v-152q20 33 36 52.5t56 54.5t101 53t143 18q84 0 162 -24q63 -20 108.5 -54t62 -57.5t36.5 -62.5q33 74 121 136t248 62q188 0 295 -106q45 -43 68.5 -103.5t26.5 -98.5t5 -107v-670h-422v555q0 35 -3 58.5t-15.5 56t-45 50t-83.5 17.5q-156 0 -156 -172 v-567h-422v573q0 31 -6 62q-12 55 -53 79.5t-88 24.5q-72 0 -115 -43q-37 -37 -41 -119v-577h-422z" />
<glyph unicode="n" d="M84 0v1061h399v-141q31 41 55.5 68.5t105.5 63t187 35.5q182 0 287 -98q106 -104 107 -319v-670h-422v580q0 29 -3 49t-15.5 49t-44 45t-81.5 16q-154 0 -153 -174v-565h-422z" />
<glyph unicode="o" d="M41 522q0 264 168 425q166 159 452 159h7q285 -2 444 -154q76 -74 121 -186.5t45 -237.5q0 -256 -169 -412.5t-464 -156.5q-154 0 -273.5 47t-190 128t-105.5 179.5t-35 208.5zM461 535q0 -66 11 -121.5t58.5 -107.5t126.5 -52q195 0 195 285q0 270 -189 270h-8 q-57 -2 -97 -27.5t-60.5 -67.5t-28.5 -86t-8 -93z" />
<glyph unicode="p" horiz-adv-x="1280" d="M84 -385v1446h412v-82q104 111 282 111q123 0 216 -48.5t145.5 -131.5t77 -179t24.5 -207q0 -246 -118.5 -398.5t-348.5 -152.5q-170 0 -274 99v-457h-416zM494 526q0 -92 18 -145q39 -111 145 -111q68 0 109 45q59 63 59 206q0 257 -157 261h-10q-60 0 -103 -43 q-61 -57 -61 -213z" />
<glyph unicode="q" horiz-adv-x="1280" d="M39 524q0 111 24.5 207t77 179t145.5 131.5t216 48.5q178 0 282 -111v82h412v-1446h-416v457q-104 -98 -274 -99q-229 0 -348 153t-119 398zM514 315q41 -45 109 -45q59 0 104 41q59 57 59 215q0 88 -16 138q-37 118 -158 118q-157 -4 -157 -261q0 -142 59 -206z" />
<glyph unicode="r" horiz-adv-x="854" d="M84 0v1067h405v-98q82 74 153 94t202 20v-356q-57 4 -86 4q-70 0 -121 -18.5t-75.5 -42t-38 -61.5t-16.5 -57.5t-3 -51.5v-500h-420z" />
<glyph unicode="s" horiz-adv-x="1110" d="M0 172l236 215q72 -72 159 -108q86 -35 168 -35q43 0 77 16t34 49q0 55 -107 70q-127 20 -221 49q-43 12 -69.5 21.5t-73.5 35t-76 56t-51.5 83t-22.5 115.5q0 139 107 242q129 123 375 123q115 0 239 -29q147 -35 266 -125l-227 -207q-160 100 -272 101q-90 0 -90 -56 q0 -27 27.5 -39t142.5 -40q233 -53 284 -80q166 -90 166 -277q0 -166 -133 -279.5t-371 -113.5q-139 0 -264 42t-180 79t-123 92z" />
<glyph unicode="t" horiz-adv-x="768" d="M0 807v229h147l5 334h423l-4 -334h183v-229h-185l-4 -408q0 -20 2 -34.5t12.5 -35t36 -30.5t64.5 -10q27 0 76 8v-289q-165 -22 -259 -22h-8q-193 0 -278 88q-72 72 -72 219l6 514h-145z" />
<glyph unicode="u" d="M82 416v645h422v-578q0 -33 3 -55t16.5 -53t46 -47.5t86 -16.5t86 17.5t46 52.5t16.5 57.5t5 61.5v561h424v-1061h-402v156q-23 -49 -53 -78q-106 -104 -297 -105q-197 2 -293 105q-47 47 -71.5 114.5t-28.5 109.5t-6 114z" />
<glyph unicode="v" horiz-adv-x="1150" d="M-6 1061h446l84 -393q23 -129 45 -318q18 160 52 336l86 375h442l-354 -1061h-447z" />
<glyph unicode="w" horiz-adv-x="1748" d="M-2 1061h430l82 -399q31 -166 49 -334q18 174 51 350l78 383h363l77 -373q33 -166 58 -360q10 133 35 276l90 457h432l-318 -1061h-419l-95 424q-31 154 -43 315q-8 -145 -32 -268l-99 -471h-420z" />
<glyph unicode="x" horiz-adv-x="1236" d="M-8 0l356 557l-315 504h452l131 -318l140 318h454l-321 -502l352 -559h-450l-175 344l-172 -344h-452z" />
<glyph unicode="y" horiz-adv-x="1193" d="M0 1061h440l105 -457q31 -172 49 -311q16 152 51 323l107 445h438l-387 -1122q-61 -170 -125 -232q-61 -61 -120.5 -75.5t-174.5 -14.5q-106 0 -223 14v301q104 -6 119 -6q90 0 90 51q0 11 -33 109z" />
<glyph unicode="z" horiz-adv-x="1110" d="M16 0v233l504 512h-440v316h1003v-242l-493 -502h489v-317h-1063z" />
<glyph unicode="{" horiz-adv-x="724" d="M2 522v154q39 8 67.5 25.5t45 46t27 53t14.5 66.5t5 66.5t1 72.5v94q-2 154 15.5 227.5t72.5 124.5q55 49 147 64.5t328 15.5v-152q-63 -14 -106.5 -35.5t-67 -46t-34.5 -70.5t-13 -83t-2 -109v-16q2 -209 -34 -295t-181 -127q41 -12 65.5 -22.5t60.5 -40t56 -70.5 q23 -43 29 -99.5t6 -189.5v-18q0 -176 39 -243t182 -101v-152q-328 0 -416 41q-53 25 -86 67t-44 101t-14 95t-1 100v104q0 174 -25 231q-37 86 -137 121z" />
<glyph unicode="|" horiz-adv-x="468" d="M104 -512v2048h261v-2048h-261z" />
<glyph unicode="}" horiz-adv-x="724" d="M2 -186q63 14 106.5 35.5t67 46t34.5 70.5t13 83t2 109v16q-2 209 34 295t181 127q-41 12 -65.5 22.5t-60 40t-56.5 70.5q-23 43 -29 99.5t-6 189.5v18q0 176 -39 243t-182 101v152q328 0 416 -41q53 -25 86 -67t44 -101t14 -95t1 -100v-104q0 -174 25 -231 q37 -86 137 -121v-154q-39 -8 -67.5 -25.5t-45 -46t-27 -53t-14.5 -66.5t-5 -66.5t-1 -72.5v-94q2 -154 -15.5 -227.5t-72.5 -124.5q-55 -49 -147 -64.5t-328 -15.5v152z" />
<glyph unicode="~" horiz-adv-x="1492" d="M211 614q27 37 47.5 60.5t61 59.5t94 55.5t116.5 19.5q76 0 211 -64l74 -32q106 -47 154 -47q98 0 207 127l106 -215q-59 -68 -145 -119t-174 -51q-78 0 -213 63l-64 31q-96 45 -149 45q-61 0 -98.5 -27.5t-114.5 -116.5z" />
<glyph unicode="&#xa1;" horiz-adv-x="598" d="M66 0v393l79 525h207l88 -529v-389h-374zM66 1061v385h374v-385h-374z" />
<glyph unicode="&#xa2;" horiz-adv-x="1193" d="M47 508q0 295 195 463q114 100 282 116v238h205v-233q166 -18 287 -113q76 -59 135 -158l-320 -180q-14 35 -22 53.5t-29.5 48t-53.5 43t-77 13.5q-96 0 -140 -79t-44 -202q0 -248 174 -248q43 0 77 16.5t57.5 48.5t34.5 53.5t26 55.5l325 -176q-55 -100 -96 -143 q-51 -55 -121 -92t-107.5 -47.5t-105.5 -24.5v-262h-205v262q-244 31 -360.5 181.5t-116.5 365.5z" />
<glyph unicode="&#xa3;" horiz-adv-x="1492" d="M31 229q0 127 103.5 198t232.5 71q20 0 112 -11q-27 57 -78 125h-274v209h145q-88 111 -88 236q0 145 105 250q150 152 473 151q457 0 563 -254q41 -96 37 -270h-365q18 227 -213 227q-96 0 -148 -41t-52 -110q0 -74 92 -189h319v-209h-184q55 -96 55 -180q0 -10 -10 -86 q121 -80 168 -80q80 0 80 127q0 43 -8 86h352q2 -121 -1 -179t-24.5 -130t-68.5 -117q-92 -86 -248 -86q-168 0 -379 146q-154 -141 -365 -142q-147 0 -239 69t-92 189zM283 229q0 -27 19.5 -44t55.5 -17q80 0 150 94q-78 35 -129 35q-43 0 -69.5 -17.5t-26.5 -50.5z" />
<glyph unicode="&#xa4;" horiz-adv-x="1366" d="M14 219l166 166q-88 147 -88 317q0 68 13.5 125.5t27.5 87t45 86.5l-162 166l193 195l164 -164q59 31 90 45t91 28.5t130 14.5q72 0 131 -13t89 -27.5t89 -47.5l164 164l197 -195l-166 -163q31 -57 45 -89t27.5 -90.5t13.5 -128.5q0 -74 -13.5 -133t-28.5 -91t-46 -89 l166 -168l-197 -195l-164 168q-59 -31 -90 -44t-91 -27.5t-128 -14.5q-70 0 -130 14.5t-92 30t-87 46.5l-166 -168zM348 692q0 -150 101.5 -243t234.5 -93q143 0 238.5 97.5t95.5 240.5q0 152 -101.5 245t-234.5 93q-129 0 -231.5 -91t-102.5 -249z" />
<glyph unicode="&#xa5;" horiz-adv-x="1622" d="M-6 1427h528l281 -485l280 485h531l-318 -448h156v-250h-332l-90 -129v-14h422v-250h-422v-336h-457v336h-405v250h405v14l-90 129h-315v250h141z" />
<glyph unicode="&#xa6;" horiz-adv-x="468" d="M104 -358v716h261v-716h-261zM104 666v716h261v-716h-261z" />
<glyph unicode="&#xa7;" horiz-adv-x="1280" d="M35 602q0 70 18.5 125t55 95t61.5 59.5t66 46.5q-70 92 -70 178q0 125 105.5 231.5t318.5 106.5q98 0 211 -27q156 -37 348 -147l-191 -215q-213 117 -370 116q-84 0 -84 -45q0 -14 11 -27.5t29.5 -22.5l55.5 -27l172 -74q94 -41 143.5 -64.5t123 -68.5t109.5 -86 t64.5 -103.5t28.5 -136.5q0 -66 -18.5 -120t-57.5 -96t-62.5 -62.5t-66.5 -53.5q70 -68 70 -184q0 -135 -114.5 -230.5t-317.5 -95.5q-111 0 -222.5 32t-171.5 63t-169 92l202 217q133 -80 222 -109q92 -29 151 -28q86 0 86 49q0 33 -48 61.5t-177 81.5q-141 59 -220 98 t-155 95.5t-106.5 122t-30.5 153.5zM354 657q0 -57 55.5 -97t172.5 -91q207 -94 264 -123q74 59 74 121q0 66 -107 123q-23 12 -64.5 32.5t-56.5 26.5q-108 49 -268 131q-70 -74 -70 -123z" />
<glyph unicode="&#xa8;" horiz-adv-x="641" d="M-98 1239v244h340v-244h-340zM403 1239v244h338v-244h-338z" />
<glyph unicode="&#xa9;" horiz-adv-x="1705" d="M125 723q0 307 214 518t515 211q317 0 524 -216t205 -517q-2 -309 -215 -517t-512 -208q-301 0 -516 208t-215 521zM190 719q0 -268 190.5 -464t473.5 -196q139 0 269 55.5t223 155.5q90 98 131 221.5t41 227.5q0 276 -188.5 471.5t-473.5 195.5q-276 0 -471 -192.5 t-195 -474.5zM358 725q0 217 140.5 364.5t369.5 147.5q104 0 192.5 -34t125.5 -63.5t86 -78.5l-178 -172q-113 102 -224 102q-119 0 -188.5 -74.5t-69.5 -189.5q0 -119 68 -192.5t197 -73.5q119 0 217 92l178 -166q-166 -172 -400 -172q-248 0 -381 148.5t-133 361.5z" />
<glyph unicode="&#xaa;" horiz-adv-x="811" d="M39 969q0 111 88 172q51 37 219 63q45 6 146 27q-2 27 -7.5 40t-25 23.5t-56.5 10.5q-47 0 -64.5 -14.5t-23.5 -47.5l-254 -6q20 102 82 154q88 74 264.5 73.5t258.5 -54.5t82 -177v-414q2 -29 22 -53h-266v53q-80 -70 -213 -69q-119 0 -185.5 61t-66.5 158zM293 979 q0 -27 19.5 -40t43.5 -13q45 0 86 35q43 34 47 116q-57 -20 -137 -41q-59 -23 -59 -57z" />
<glyph unicode="&#xab;" horiz-adv-x="854" d="M66 461v375l321 256v-306l-182 -141l182 -137v-303zM463 461v375l321 256v-306l-184 -141l184 -137v-303z" />
<glyph unicode="&#xac;" horiz-adv-x="1366" d="M0 465v260h1364v-725h-260v465h-1104z" />
<glyph unicode="&#xad;" horiz-adv-x="681" d="M78 473v350h524v-350h-524z" />
<glyph unicode="&#xae;" horiz-adv-x="1705" d="M123 723q0 311 215 520t514 209q313 0 523 -215t208 -516q-2 -305 -213 -516t-520 -211q-293 0 -510 207t-217 522zM188 723q0 -279 195 -471.5t469 -192.5q281 0 472.5 193t193.5 469q2 274 -189.5 469.5t-472.5 195.5t-474.5 -194.5t-193.5 -468.5zM512 262v938h334 q152 0 221 -22q82 -27 124 -92.5t42 -139.5q0 -63 -32 -111.5t-60.5 -65.5t-71.5 -38q47 -31 68.5 -62.5t36.5 -113.5q33 -209 79 -293h-258q-29 59 -51 203q-18 133 -41.5 160.5t-126.5 29.5h-39v-393h-225zM737 834h99q100 0 131 18q41 23 41 82q0 61 -50 84 q-27 10 -153 10h-68v-194z" />
<glyph unicode="&#xaf;" horiz-adv-x="641" d="M-98 1239v191h839v-191h-839z" />
<glyph unicode="&#xb0;" horiz-adv-x="724" d="M10 1175.5q0 145.5 103.5 249t249 103.5t249 -103.5t103.5 -249t-103.5 -249t-249 -103.5t-249 103.5t-103.5 249zM248 1175.5q0 -47.5 33.5 -81t81 -33.5t81 33.5t33.5 81t-33.5 81t-81 33.5t-81 -33.5t-33.5 -81z" />
<glyph unicode="&#xb1;" horiz-adv-x="1366" d="M88 0v260h1192v-260h-1192zM88 760v260h467v426h260v-426h465v-260h-465v-428h-260v428h-467z" />
<glyph unicode="&#xb2;" horiz-adv-x="894" d="M41 498v182q266 147 399 266q104 92 105 168q0 53 -34 76.5t-77 23.5q-117 0 -117 -127q1 -22 9 -75l-281 35q8 182 72 256q96 113 344 112q190 0 282 -78q90 -80 91 -213q0 -174 -177 -299q-51 -37 -161 -102h325v-225h-780z" />
<glyph unicode="&#xb3;" horiz-adv-x="894" d="M18 760l263 49q14 -125 147 -125q123 0 123 100q0 84 -131 84q-10 0 -29.5 -1t-28.5 -1l-2 191q35 -2 68 0t57.5 8t39 24.5t14.5 49.5q0 86 -113 86q-61 0 -86 -27t-35 -84l-260 16q25 143 107 211q94 80 288 80q127 0 205 -32q164 -63 164 -228q0 -123 -119 -188 q147 -57 148 -199q0 -158 -131 -235q-92 -57 -271 -58q-188 0 -287.5 66.5t-130.5 212.5z" />
<glyph unicode="&#xb4;" horiz-adv-x="641" d="M25 1202l157 281h434l-329 -281h-262z" />
<glyph unicode="&#xb6;" horiz-adv-x="1366" d="M166 1006q0 201 127 321q55 53 121.5 81t106.5 32t110 6h512v-160h-74v-1628h-172v1628h-242v-1628h-172v940q-111 31 -172 80q-145 113 -145 328z" />
<glyph unicode="&#xb7;" horiz-adv-x="512" d="M70 455v385h372v-385h-372z" />
<glyph unicode="&#xb8;" horiz-adv-x="641" d="M109 -432l6 113q23 -8 45 -9q41 0 64.5 13.5t23.5 31.5q0 33 -51 33q-35 0 -78 -12l6 74l135 198l96 -30l-49 -101q33 4 53 4q82 0 127 -44t45 -105q0 -63 -47 -111q-70 -70 -219 -69q-78 0 -157 14z" />
<glyph unicode="&#xb9;" horiz-adv-x="894" d="M158 1065v217q106 0 154 21.5t73 99.5h248v-905h-285v583q-69 -18 -190 -16z" />
<glyph unicode="&#xba;" horiz-adv-x="854" d="M31 1100q0 147 93.5 254.5t283.5 113.5q193 6 301 -94t108 -268q0 -182 -115.5 -274.5t-287.5 -92.5q-182 0 -282.5 104.5t-100.5 256.5zM301 1102q0 -170 123 -170q121 0 121 176q0 27 -3 49.5t-14.5 55t-40 50t-71.5 13.5q-63 -4 -92 -59q-23 -43 -23 -115z" />
<glyph unicode="&#xbb;" horiz-adv-x="854" d="M66 205v305l184 141l-184 137v304l321 -256v-375zM463 205v305l182 141l-182 137v304l321 -256v-375z" />
<glyph unicode="&#xbc;" horiz-adv-x="2048" d="M158 1065v217q106 0 154 21.5t73 99.5h248v-905h-285v583q-69 -18 -190 -16zM627 0l616 1446h189l-619 -1446h-186zM1176 182v178l415 547h279v-526h129v-199h-129v-182h-266v182h-428zM1427 381h179l2 123q0 72 6 145q-57 -90 -88 -135q-35 -49 -99 -133z" />
<glyph unicode="&#xbd;" horiz-adv-x="2048" d="M158 1065v217q106 0 154 21.5t73 99.5h248v-905h-285v583q-69 -18 -190 -16zM578 0l618 1446h188l-618 -1446h-188zM1194 0v182q266 147 399 267q104 92 105 167q0 53 -34 77t-77 24q-117 0 -117 -127q1 -23 9 -76l-281 35q8 182 72 256q96 113 344 113q190 0 282 -78 q90 -80 91 -213q0 -174 -177 -299q-51 -37 -161 -103h325v-225h-780z" />
<glyph unicode="&#xbe;" horiz-adv-x="2048" d="M18 760l263 49q14 -125 147 -125q123 0 123 100q0 84 -131 84q-10 0 -29.5 -1t-28.5 -1l-2 191q35 -2 68 0t57.5 8t39 24.5t14.5 49.5q0 86 -113 86q-61 0 -86 -27t-35 -84l-260 16q25 143 107 211q94 80 288 80q127 0 205 -32q164 -63 164 -228q0 -123 -119 -188 q147 -57 148 -199q0 -158 -131 -235q-92 -57 -271 -58q-188 0 -287.5 66.5t-130.5 212.5zM625 0l616 1446h191l-621 -1446h-186zM1174 182v178l417 547h279v-526h129v-199h-129v-182h-266v182h-430zM1427 381h179l2 123q0 74 6 143q-10 -14 -40 -60t-48.5 -73t-53 -73 t-45.5 -60z" />
<glyph unicode="&#xbf;" horiz-adv-x="1236" d="M20 371q0 176 164 295q29 18 85.5 55t84.5 57q45 35 70 60.5t30 40t11 39.5h354q-6 -61 -14 -95.5t-47 -88.5t-115 -111q-12 -10 -38.5 -30t-41.5 -30q-127 -94 -127 -178q0 -47 37 -89t115 -42q178 0 205 227l350 -116q-14 -49 -24.5 -75t-40 -75t-74.5 -90 q-156 -147 -439 -148q-297 0 -442 146q-102 102 -103 248zM459 1061v385h372v-385h-372z" />
<glyph unicode="&#xc0;" horiz-adv-x="1622" d="M-2 0l553 1446h520l541 -1446h-492l-63 201h-504l-64 -201h-491zM424 1790h444l131 -246h-268zM651 524h312l-154 510z" />
<glyph unicode="&#xc1;" horiz-adv-x="1622" d="M-2 0l553 1446h520l541 -1446h-492l-63 201h-504l-64 -201h-491zM625 1544l133 246h444l-307 -246h-270zM651 524h312l-154 510z" />
<glyph unicode="&#xc2;" horiz-adv-x="1622" d="M-2 0l553 1446h520l541 -1446h-492l-63 201h-504l-64 -201h-491zM461 1538l190 252h330l197 -252h-295l-70 107l-63 -107h-289zM651 524h312l-154 510z" />
<glyph unicode="&#xc3;" horiz-adv-x="1622" d="M-2 0l553 1446h520l541 -1446h-492l-63 201h-504l-64 -201h-491zM430 1548q8 49 18.5 81t34 77t68.5 68.5t111 23.5q59 0 217 -35q41 -8 63.5 -8t35.5 7t16.5 13.5t9.5 20.5h217q-10 -53 -19.5 -83t-34 -75t-70.5 -67.5t-116 -22.5q-59 0 -178 25q-104 23 -117 22 q-20 0 -31.5 -9t-13.5 -16t-4 -22h-207zM651 524h312l-154 510z" />
<glyph unicode="&#xc4;" horiz-adv-x="1622" d="M-2 0l553 1446h520l541 -1446h-492l-63 201h-504l-64 -201h-491zM408 1552v242h340v-242h-340zM651 524h312l-154 510zM877 1552v242h340v-242h-340z" />
<glyph unicode="&#xc5;" horiz-adv-x="1622" d="M-2 0l553 1446h520l541 -1446h-492l-63 201h-504l-64 -201h-491zM569 1702q0 76 60.5 140.5t177.5 64.5q115 0 176 -63.5t61 -141.5t-61 -142.5t-176 -64.5q-107 0 -170 57q-68 61 -68 150zM651 524h312l-154 510zM733 1702q0 -35 23 -53q18 -23 51 -23q31 0 52.5 21.5 t21.5 54.5q0 31 -21.5 52.5t-52.5 21.5t-52.5 -22.5t-21.5 -51.5z" />
<glyph unicode="&#xc6;" horiz-adv-x="2260" d="M-35 0l846 1446h1348v-313h-666v-220h614v-315h-614v-281h737v-317h-1179v205h-465l-105 -205h-516zM748 520h305l-4 268q4 111 6 168q2 70 10 209q0 -6 -44 -103t-56 -124z" />
<glyph unicode="&#xc7;" horiz-adv-x="1536" d="M55 715q0 147 49.5 286.5t140.5 251t237.5 179t322.5 67.5q352 0 579 -233q61 -63 121 -170l-383 -191q-18 45 -36.5 76t-53.5 74t-88 66.5t-121 23.5q-117 0 -194 -78q-109 -104 -109 -326q0 -180 74 -298.5t229 -118.5q219 -1 295 237l389 -188q-76 -139 -141 -205 q-193 -190 -522 -213l-35 -92q57 14 90 14q78 0 122 -48t44 -114q0 -90 -75 -146t-204 -56q-53 0 -151 12l-2 121q49 -8 69 -8q80 0 80 51q0 16 -14 29.5t-45 13.5t-92 -25v92l102 158q-285 25 -459 199q-219 219 -219 559z" />
<glyph unicode="&#xc8;" d="M88 0v1446h1145v-318h-686v-215h641v-313h-641v-287h747v-313h-1206zM274 1790h445l131 -246h-268z" />
<glyph unicode="&#xc9;" d="M88 0v1446h1145v-318h-686v-215h641v-313h-641v-287h747v-313h-1206zM475 1544l133 246h445l-308 -246h-270z" />
<glyph unicode="&#xca;" d="M88 0v1446h1145v-318h-686v-215h641v-313h-641v-287h747v-313h-1206zM311 1538l191 252h329l197 -252h-295l-69 107l-64 -107h-289z" />
<glyph unicode="&#xcb;" d="M88 0v1446h1145v-318h-686v-215h641v-313h-641v-287h747v-313h-1206zM262 1552v242h340v-242h-340zM731 1552v242h340v-242h-340z" />
<glyph unicode="&#xcc;" horiz-adv-x="641" d="M-68 1790h445l131 -246h-268zM90 0v1446h459v-1446h-459z" />
<glyph unicode="&#xcd;" horiz-adv-x="641" d="M90 0v1446h459v-1446h-459zM133 1544l133 246h445l-308 -246h-270z" />
<glyph unicode="&#xce;" horiz-adv-x="641" d="M-31 1538l191 252h329l197 -252h-295l-69 107l-64 -107h-289zM90 0v1446h459v-1446h-459z" />
<glyph unicode="&#xcf;" horiz-adv-x="641" d="M-80 1552v242h340v-242h-340zM90 0v1446h459v-1446h-459zM389 1552v242h340v-242h-340z" />
<glyph unicode="&#xd0;" horiz-adv-x="1536" d="M0 614v269h90v563h492q156 -2 228.5 -5t173.5 -18.5t170 -50.5t130 -92q201 -186 201 -551q0 -246 -100.5 -434.5t-305.5 -255.5q-117 -39 -387 -39h-602v614h-90zM549 332h174q45 2 67.5 5t59.5 18.5t65 43.5q109 104 109 324q0 117 -37 213q-23 57 -53.5 94t-71.5 52.5 t-67.5 19.5t-73.5 6h-172v-225h297v-269h-297v-282z" />
<glyph unicode="&#xd1;" horiz-adv-x="1579" d="M90 0v1446h485l326 -547q100 -186 176 -354q-14 162 -18 334v567h428v-1446h-492l-293 500q-100 172 -200 381q12 -156 14 -295v-586h-426zM408 1548q8 49 18 81t33.5 77t68.5 68.5t111 23.5q61 0 217 -35q41 -8 63.5 -8t36 7t16.5 13.5t9 20.5h217q-10 -53 -19.5 -83 t-34 -75t-70.5 -67.5t-116 -22.5q-57 0 -178 25q-104 23 -116 22q-20 0 -31.5 -9t-14 -16t-4.5 -22h-206z" />
<glyph unicode="&#xd2;" horiz-adv-x="1662" d="M53 721q0 330 202.5 554t575.5 224q205 0 361 -69.5t243 -184.5t129 -243t42 -265q0 -145 -44 -278t-133.5 -250t-246 -186.5t-359.5 -69.5q-170 0 -306 49t-221 126t-141.5 180.5t-79 205.5t-22.5 207zM444 1790h445l131 -246h-268zM512 723q0 -193 80 -298.5 t239 -105.5q141 0 227.5 110t86.5 308q0 117 -27 191q-25 70 -66.5 116t-90 63t-76 22.5t-54.5 5.5q-137 0 -228 -101.5t-91 -310.5z" />
<glyph unicode="&#xd3;" horiz-adv-x="1662" d="M53 721q0 330 202.5 554t575.5 224q205 0 361 -69.5t243 -184.5t129 -243t42 -265q0 -145 -44 -278t-133.5 -250t-246 -186.5t-359.5 -69.5q-170 0 -306 49t-221 126t-141.5 180.5t-79 205.5t-22.5 207zM512 723q0 -193 80 -298.5t239 -105.5q141 0 227.5 110t86.5 308 q0 117 -27 191q-25 70 -66.5 116t-90 63t-76 22.5t-54.5 5.5q-137 0 -228 -101.5t-91 -310.5zM645 1544l133 246h445l-308 -246h-270z" />
<glyph unicode="&#xd4;" horiz-adv-x="1662" d="M53 721q0 330 202.5 554t575.5 224q205 0 361 -69.5t243 -184.5t129 -243t42 -265q0 -145 -44 -278t-133.5 -250t-246 -186.5t-359.5 -69.5q-170 0 -306 49t-221 126t-141.5 180.5t-79 205.5t-22.5 207zM481 1538l191 252h329l197 -252h-295l-69 107l-64 -107h-289z M512 723q0 -193 80 -298.5t239 -105.5q141 0 227.5 110t86.5 308q0 117 -27 191q-25 70 -66.5 116t-90 63t-76 22.5t-54.5 5.5q-137 0 -228 -101.5t-91 -310.5z" />
<glyph unicode="&#xd5;" horiz-adv-x="1662" d="M53 721q0 330 202.5 554t575.5 224q205 0 361 -69.5t243 -184.5t129 -243t42 -265q0 -145 -44 -278t-133.5 -250t-246 -186.5t-359.5 -69.5q-170 0 -306 49t-221 126t-141.5 180.5t-79 205.5t-22.5 207zM451 1548q8 49 18 81t33.5 77t68.5 68.5t111 23.5q59 0 217 -35 q41 -8 63.5 -8t36 7t16.5 13.5t9 20.5h217q-10 -53 -19.5 -83t-34 -75t-70.5 -67.5t-116 -22.5q-59 0 -178 25q-104 23 -116 22q-20 0 -31.5 -9t-14 -16t-4.5 -22h-206zM512 723q0 -193 80 -298.5t239 -105.5q141 0 227.5 110t86.5 308q0 117 -27 191q-25 70 -66.5 116 t-90 63t-76 22.5t-54.5 5.5q-137 0 -228 -101.5t-91 -310.5z" />
<glyph unicode="&#xd6;" horiz-adv-x="1662" d="M53 721q0 330 202.5 554t575.5 224q205 0 361 -69.5t243 -184.5t129 -243t42 -265q0 -145 -44 -278t-133.5 -250t-246 -186.5t-359.5 -69.5q-170 0 -306 49t-221 126t-141.5 180.5t-79 205.5t-22.5 207zM428 1552v242h340v-242h-340zM512 723q0 -193 80 -298.5 t239 -105.5q141 0 227.5 110t86.5 308q0 117 -27 191q-25 70 -66.5 116t-90 63t-76 22.5t-54.5 5.5q-137 0 -228 -101.5t-91 -310.5zM897 1552v242h340v-242h-340z" />
<glyph unicode="&#xd7;" horiz-adv-x="1366" d="M125 225l373 371l-373 375l184 180l373 -371l375 371l182 -180l-371 -375l371 -371l-182 -186l-375 373l-373 -373z" />
<glyph unicode="&#xd8;" horiz-adv-x="1662" d="M29 104l159 150q-131 217 -131 467q0 373 236 594q203 186 528 186q133 0 238 -24q92 -20 147.5 -49t136.5 -89l162 154l135 -145l-170 -160q37 -57 58.5 -98t49.5 -139.5t28 -209.5q0 -135 -43 -267t-129 -252t-243 -194.5t-360 -74.5q-139 0 -274 37q-129 35 -238 119 l-155 -148zM510 729q0 -56 12 -162l522 490q-72 84 -206 84q-152 0 -240 -105.5t-88 -306.5zM616 387q98 -76 203 -76q141 0 223 88q106 106 107 334q0 64 -10 146z" />
<glyph unicode="&#xd9;" horiz-adv-x="1492" d="M86 586v860h459v-903q0 -123 53 -174q51 -53 145 -54q90 0 146 52q55 53 55 176v903h461v-770q0 -86 -3 -136.5t-17.5 -132t-52.5 -149.5t-97 -125q-182 -172 -496 -172q-156 0 -289 47t-214 125q-68 66 -102 152t-40 141.5t-8 159.5zM360 1790h445l131 -246h-268z" />
<glyph unicode="&#xda;" horiz-adv-x="1492" d="M86 586v860h459v-903q0 -123 53 -174q51 -53 145 -54q90 0 146 52q55 53 55 176v903h461v-770q0 -86 -3 -136.5t-17.5 -132t-52.5 -149.5t-97 -125q-182 -172 -496 -172q-156 0 -289 47t-214 125q-68 66 -102 152t-40 141.5t-8 159.5zM561 1544l133 246h445l-308 -246 h-270z" />
<glyph unicode="&#xdb;" horiz-adv-x="1492" d="M86 586v860h459v-903q0 -123 53 -174q51 -53 145 -54q90 0 146 52q55 53 55 176v903h461v-770q0 -86 -3 -136.5t-17.5 -132t-52.5 -149.5t-97 -125q-182 -172 -496 -172q-156 0 -289 47t-214 125q-68 66 -102 152t-40 141.5t-8 159.5zM397 1538l191 252h330l196 -252 h-295l-69 107l-64 -107h-289z" />
<glyph unicode="&#xdc;" horiz-adv-x="1492" d="M86 586v860h459v-903q0 -123 53 -174q51 -53 145 -54q90 0 146 52q55 53 55 176v903h461v-770q0 -86 -3 -136.5t-17.5 -132t-52.5 -149.5t-97 -125q-182 -172 -496 -172q-156 0 -289 47t-214 125q-68 66 -102 152t-40 141.5t-8 159.5zM340 1550v242h340v-242h-340z M809 1550v242h340v-242h-340z" />
<glyph unicode="&#xdd;" horiz-adv-x="1622" d="M-6 1446h528l283 -481l278 481h531l-584 -838v-608h-457v608zM625 1544l133 246h444l-307 -246h-270z" />
<glyph unicode="&#xde;" horiz-adv-x="1449" d="M90 0v1448h459v-205h366q102 -4 156.5 -10t128.5 -37t129 -88q121 -127 121 -338q0 -227 -137 -369q-57 -59 -130 -89.5t-127.5 -37t-154.5 -8.5h-352v-266h-459zM549 569h262q59 4 76 11q111 35 110 176q0 59 -19.5 98t-56 55.5t-58 21.5t-56.5 7h-258v-369z" />
<glyph unicode="&#xdf;" horiz-adv-x="1280" d="M84 0v930q2 90 7 141t34 125t86 127q143 135 444 135q264 0 392 -119q102 -98 102 -256q0 -78 -25.5 -133t-48 -74.5t-59.5 -39.5q35 -10 54.5 -17.5t54 -33t54 -61.5t36 -102.5t16.5 -156.5q0 -252 -129 -381q-113 -111 -324 -111q-96 0 -194 41v267q61 -39 106 -39 q139 0 139 239q0 145 -47 184.5t-159 41.5v225q20 -4 32 -4q53 0 81 38t28 97q0 141 -127 141q-59 0 -91 -33.5t-36 -65.5t-4 -81v-1024h-422z" />
<glyph unicode="&#xe0;" horiz-adv-x="1236" d="M39 317q0 137 90 228q66 68 148.5 92.5t248.5 46.5q135 18 226 45q-2 61 -31 91t-113 30q-72 0 -99.5 -20.5t-37.5 -77.5l-395 -11q8 45 16 73t27.5 70t56.5 76.5t90 63.5q139 72 381 72q104 0 186 -15.5t134.5 -38t89.5 -60.5t54 -67.5t27.5 -74.5t11.5 -68.5t1 -62.5 v-578q0 -51 7 -74.5t30 -56.5h-416v82q-154 -106 -350 -107q-188 0 -285.5 98.5t-97.5 243.5zM273 1483h436l155 -281h-260zM430 330q0 -29 25.5 -55.5t79.5 -26.5q51 0 110.5 31.5t83.5 89.5q21 45 21 125q-82 -29 -125 -41q-76 -18 -109 -29q-86 -35 -86 -94z" />
<glyph unicode="&#xe1;" horiz-adv-x="1236" d="M39 317q0 137 90 228q66 68 148.5 92.5t248.5 46.5q135 18 226 45q-2 61 -31 91t-113 30q-72 0 -99.5 -20.5t-37.5 -77.5l-395 -11q8 45 16 73t27.5 70t56.5 76.5t90 63.5q139 72 381 72q104 0 186 -15.5t134.5 -38t89.5 -60.5t54 -67.5t27.5 -74.5t11.5 -68.5t1 -62.5 v-578q0 -51 7 -74.5t30 -56.5h-416v82q-154 -106 -350 -107q-188 0 -285.5 98.5t-97.5 243.5zM430 330q0 -29 25.5 -55.5t79.5 -26.5q51 0 110.5 31.5t83.5 89.5q21 45 21 125q-82 -29 -125 -41q-76 -18 -109 -29q-86 -35 -86 -94zM474 1202l157 281h434l-329 -281h-262z " />
<glyph unicode="&#xe2;" horiz-adv-x="1236" d="M39 317q0 137 90 228q66 68 148.5 92.5t248.5 46.5q135 18 226 45q-2 61 -31 91t-113 30q-72 0 -99.5 -20.5t-37.5 -77.5l-395 -11q8 45 16 73t27.5 70t56.5 76.5t90 63.5q139 72 381 72q104 0 186 -15.5t134.5 -38t89.5 -60.5t54 -67.5t27.5 -74.5t11.5 -68.5t1 -62.5 v-578q0 -51 7 -74.5t30 -56.5h-416v82q-154 -106 -350 -107q-188 0 -285.5 98.5t-97.5 243.5zM250 1200l217 283h319l213 -283h-293l-84 135l-81 -135h-291zM430 330q0 -29 25.5 -55.5t79.5 -26.5q51 0 110.5 31.5t83.5 89.5q21 45 21 125q-82 -29 -125 -41 q-76 -18 -109 -29q-86 -35 -86 -94z" />
<glyph unicode="&#xe3;" horiz-adv-x="1236" d="M39 317q0 137 90 228q66 68 148.5 92.5t248.5 46.5q135 18 226 45q-2 61 -31 91t-113 30q-72 0 -99.5 -20.5t-37.5 -77.5l-395 -11q8 45 16 73t27.5 70t56.5 76.5t90 63.5q139 72 381 72q104 0 186 -15.5t134.5 -38t89.5 -60.5t54 -67.5t27.5 -74.5t11.5 -68.5t1 -62.5 v-578q0 -51 7 -74.5t30 -56.5h-416v82q-154 -106 -350 -107q-188 0 -285.5 98.5t-97.5 243.5zM234 1204q6 49 10 75t18.5 73t35 71.5t56 45t84.5 20.5q68 0 195 -37q111 -29 119 -29q59 0 59 58h184q-6 -59 -15 -98.5t-29.5 -88.5t-59.5 -73.5t-96.5 -24.5t-175.5 31 q-131 33 -154 33q-49 -1 -49 -56h-182zM430 330q0 -29 25.5 -55.5t79.5 -26.5q51 0 110.5 31.5t83.5 89.5q21 45 21 125q-82 -29 -125 -41q-76 -18 -109 -29q-86 -35 -86 -94z" />
<glyph unicode="&#xe4;" horiz-adv-x="1236" d="M39 317q0 137 90 228q66 68 148.5 92.5t248.5 46.5q135 18 226 45q-2 61 -31 91t-113 30q-72 0 -99.5 -20.5t-37.5 -77.5l-395 -11q8 45 16 73t27.5 70t56.5 76.5t90 63.5q139 72 381 72q104 0 186 -15.5t134.5 -38t89.5 -60.5t54 -67.5t27.5 -74.5t11.5 -68.5t1 -62.5 v-578q0 -51 7 -74.5t30 -56.5h-416v82q-154 -106 -350 -107q-188 0 -285.5 98.5t-97.5 243.5zM236 1239v244h340v-244h-340zM430 330q0 -29 25.5 -55.5t79.5 -26.5q51 0 110.5 31.5t83.5 89.5q21 45 21 125q-82 -29 -125 -41q-76 -18 -109 -29q-86 -35 -86 -94zM737 1239 v244h338v-244h-338z" />
<glyph unicode="&#xe5;" horiz-adv-x="1236" d="M39 317q0 137 90 228q66 68 148.5 92.5t248.5 46.5q135 18 226 45q-2 61 -31 91t-113 30q-72 0 -99.5 -20.5t-37.5 -77.5l-395 -11q8 45 16 73t27.5 70t56.5 76.5t90 63.5q139 72 381 72q104 0 186 -15.5t134.5 -38t89.5 -60.5t54 -67.5t27.5 -74.5t11.5 -68.5t1 -62.5 v-578q0 -51 7 -74.5t30 -56.5h-416v82q-154 -106 -350 -107q-188 0 -285.5 98.5t-97.5 243.5zM430 330q0 -29 25.5 -55.5t79.5 -26.5q51 0 110.5 31.5t83.5 89.5q21 45 21 125q-82 -29 -125 -41q-76 -18 -109 -29q-86 -35 -86 -94zM430 1413q0 94 66.5 160.5t161 66.5 t161 -66.5t66.5 -160.5t-66.5 -160.5t-161 -66.5t-161 66.5t-66.5 160.5zM584 1413q0 -31 21.5 -52.5t52 -21.5t52 21.5t21.5 52.5t-21.5 52.5t-52 21.5t-52 -21.5t-21.5 -52.5z" />
<glyph unicode="&#xe6;" horiz-adv-x="1921" d="M35 307q0 94 48 178t148 127q68 29 306 62q121 18 215 39q0 29 -3.5 48t-14.5 42.5t-41.5 36t-78.5 12.5q-80 0 -107.5 -28t-35.5 -83l-397 -6q14 133 94 217q141 150 440 150q121 0 244 -27q74 -18 147 -61q156 90 324 90q244 0 401 -156q76 -74 115 -171t44 -159.5 t3 -160.5h-737q0 -53 6 -78q14 -63 62.5 -94t109.5 -31q131 0 199 143l344 -145q-61 -86 -94 -119q-180 -176 -457 -176q-221 0 -393 127q-231 -127 -459 -127q-102 0 -186 25q-82 27 -137.5 73.5t-76 102t-26.5 87t-6 62.5zM426 328q0 -31 24.5 -58.5t81.5 -27.5 q92 0 160 67q27 25 42.5 57.5t19.5 53t10 63.5q-86 -27 -203 -53q-66 -14 -100.5 -35.5t-34.5 -66.5zM1155 676h301q0 16 -4 49q-23 104 -141 104q-47 0 -79 -16t-47.5 -47t-20.5 -48t-9 -42z" />
<glyph unicode="&#xe7;" horiz-adv-x="1150" d="M37 537q0 252 151 409q156 162 439 162q272 0 436 -166q43 -45 84 -111l-322 -182q-47 162 -178 162q-92 0 -142 -81t-50 -206q0 -244 180 -243q45 0 81 18t58.5 53t30.5 54.5t20 52.5l322 -176q-137 -289 -473 -322l-41 -82q33 4 53 4q82 0 127 -44t45 -105 q0 -63 -47 -111q-70 -70 -219 -69q-76 0 -158 14l6 113q23 -8 45 -9q88 0 88 45q0 33 -51 33q-35 0 -78 -12l7 74l100 147q-256 20 -385 184t-129 394z" />
<glyph unicode="&#xe8;" horiz-adv-x="1236" d="M35 535q0 258 161.5 413.5t421.5 155.5q262 0 426 -158q55 -55 90 -114.5t48.5 -132t17.5 -116.5t6 -128h-741q4 -102 51 -150q49 -49 127 -49q123 0 193 137l348 -145q-190 -291 -563 -291q-279 0 -432.5 169t-153.5 409zM240 1483h436l155 -281h-260zM469 678h307 q0 6 -1 15t-2 17.5t-3 16.5q-12 53 -53 81t-88 28q-45 0 -77 -16.5t-48.5 -47.5t-22.5 -48t-12 -46z" />
<glyph unicode="&#xe9;" horiz-adv-x="1236" d="M35 535q0 258 161.5 413.5t421.5 155.5q262 0 426 -158q55 -55 90 -114.5t48.5 -132t17.5 -116.5t6 -128h-741q4 -102 51 -150q49 -49 127 -49q123 0 193 137l348 -145q-190 -291 -563 -291q-279 0 -432.5 169t-153.5 409zM420 1202l157 281h434l-329 -281h-262zM469 678 h307q0 6 -1 15t-2 17.5t-3 16.5q-12 53 -53 81t-88 28q-45 0 -77 -16.5t-48.5 -47.5t-22.5 -48t-12 -46z" />
<glyph unicode="&#xea;" horiz-adv-x="1236" d="M35 535q0 258 161.5 413.5t421.5 155.5q262 0 426 -158q55 -55 90 -114.5t48.5 -132t17.5 -116.5t6 -128h-741q4 -102 51 -150q49 -49 127 -49q123 0 193 137l348 -145q-190 -291 -563 -291q-279 0 -432.5 169t-153.5 409zM250 1200l217 283h319l213 -283h-293l-84 135 l-81 -135h-291zM469 678h307q0 6 -1 15t-2 17.5t-3 16.5q-12 53 -53 81t-88 28q-45 0 -77 -16.5t-48.5 -47.5t-22.5 -48t-12 -46z" />
<glyph unicode="&#xeb;" horiz-adv-x="1236" d="M35 535q0 258 161.5 413.5t421.5 155.5q262 0 426 -158q55 -55 90 -114.5t48.5 -132t17.5 -116.5t6 -128h-741q4 -102 51 -150q49 -49 127 -49q123 0 193 137l348 -145q-190 -291 -563 -291q-279 0 -432.5 169t-153.5 409zM201 1239v244h340v-244h-340zM469 678h307 q0 6 -1 15t-2 17.5t-3 16.5q-12 53 -53 81t-88 28q-45 0 -77 -16.5t-48.5 -47.5t-22.5 -48t-12 -46zM702 1239v244h338v-244h-338z" />
<glyph unicode="&#xec;" horiz-adv-x="598" d="M-81 1483h436l155 -281h-260zM86 0v1061h422v-1061h-422z" />
<glyph unicode="&#xed;" horiz-adv-x="598" d="M86 0v1061h422v-1061h-422zM99 1202l157 281h434l-329 -281h-262z" />
<glyph unicode="&#xee;" horiz-adv-x="598" d="M-71 1200l217 283h319l213 -283h-293l-84 135l-81 -135h-291zM86 0v1061h422v-1061h-422z" />
<glyph unicode="&#xef;" horiz-adv-x="598" d="M-121 1239v244h340v-244h-340zM86 0v1061h422v-1061h-422zM380 1239v244h338v-244h-338z" />
<glyph unicode="&#xf0;" d="M41 522q0 268 171 427t384 159q170 0 289 -139q-70 150 -148 258l-346 -78l-29 111l289 67q-70 80 -80 90l293 66l78 -88l186 41l37 -113l-141 -31q256 -346 256 -692q0 -215 -92 -363.5t-233.5 -213t-319.5 -64.5q-281 0 -437.5 160t-156.5 403zM461 535 q0 -66 11 -121.5t58.5 -107.5t126.5 -52q195 0 195 285q0 274 -197 270q-57 -2 -97 -27.5t-60.5 -67.5t-28.5 -86t-8 -93z" />
<glyph unicode="&#xf1;" d="M84 0v1061h399v-141q31 41 55.5 68.5t105.5 63t187 35.5q182 0 287 -98q106 -104 107 -319v-670h-422v580q0 29 -3 49t-15.5 49t-44 45t-81.5 16q-154 0 -153 -174v-565h-422zM277 1204q6 49 10 75t18.5 73t35 71.5t56 45t84.5 20.5q68 0 195 -37q111 -29 119 -29 q59 0 59 58h184q-6 -59 -15 -98.5t-29.5 -88.5t-59.5 -73.5t-96.5 -24.5t-175.5 31q-131 33 -154 33q-49 -1 -49 -56h-182z" />
<glyph unicode="&#xf2;" d="M41 522q0 264 168 425t459 159q285 -2 444 -154q76 -74 121 -186.5t45 -237.5q0 -256 -169 -412.5t-464 -156.5q-154 0 -273.5 47t-190 128t-105.5 179.5t-35 208.5zM283 1483h436l155 -281h-260zM461 535q0 -66 11 -121.5t58.5 -107.5t126.5 -52q195 0 195 285 q0 276 -197 270q-57 -2 -97 -27.5t-60.5 -67.5t-28.5 -86t-8 -93z" />
<glyph unicode="&#xf3;" d="M41 522q0 264 168 425t459 159q285 -2 444 -154q76 -74 121 -186.5t45 -237.5q0 -256 -169 -412.5t-464 -156.5q-154 0 -273.5 47t-190 128t-105.5 179.5t-35 208.5zM461 535q0 -66 11 -121.5t58.5 -107.5t126.5 -52q195 0 195 285q0 276 -197 270q-57 -2 -97 -27.5 t-60.5 -67.5t-28.5 -86t-8 -93zM463 1202l157 281h434l-329 -281h-262z" />
<glyph unicode="&#xf4;" d="M41 522q0 264 168 425t459 159q285 -2 444 -154q76 -74 121 -186.5t45 -237.5q0 -256 -169 -412.5t-464 -156.5q-154 0 -273.5 47t-190 128t-105.5 179.5t-35 208.5zM293 1200l217 283h319l213 -283h-293l-84 135l-81 -135h-291zM461 535q0 -66 11 -121.5t58.5 -107.5 t126.5 -52q195 0 195 285q0 276 -197 270q-57 -2 -97 -27.5t-60.5 -67.5t-28.5 -86t-8 -93z" />
<glyph unicode="&#xf5;" d="M41 522q0 264 168 425t459 159q285 -2 444 -154q76 -74 121 -186.5t45 -237.5q0 -256 -169 -412.5t-464 -156.5q-154 0 -273.5 47t-190 128t-105.5 179.5t-35 208.5zM277 1204q6 49 10 75t18.5 73t35 71.5t56 45t84.5 20.5q68 0 195 -37q111 -29 119 -29q59 0 59 58h184 q-6 -59 -15 -98.5t-29.5 -88.5t-59.5 -73.5t-96.5 -24.5t-175.5 31q-131 33 -154 33q-49 -1 -49 -56h-182zM461 535q0 -66 11 -121.5t58.5 -107.5t126.5 -52q195 0 195 285q0 276 -197 270q-57 -2 -97 -27.5t-60.5 -67.5t-28.5 -86t-8 -93z" />
<glyph unicode="&#xf6;" d="M41 522q0 264 168 425t459 159q285 -2 444 -154q76 -74 121 -186.5t45 -237.5q0 -256 -169 -412.5t-464 -156.5q-154 0 -273.5 47t-190 128t-105.5 179.5t-35 208.5zM240 1239v244h340v-244h-340zM461 535q0 -66 11 -121.5t58.5 -107.5t126.5 -52q195 0 195 285 q0 276 -197 270q-57 -2 -97 -27.5t-60.5 -67.5t-28.5 -86t-8 -93zM741 1239v244h338v-244h-338z" />
<glyph unicode="&#xf7;" horiz-adv-x="1366" d="M0 465v260h1366v-260h-1366zM518 227.5q0 67.5 48 115.5t116 48t116 -48t48 -115.5t-48 -116t-116 -48.5t-116 48.5t-48 116zM518 962.5q0 67.5 48 115.5t116 48t116 -48t48 -115.5t-48 -115.5t-116 -48t-116 48t-48 115.5z" />
<glyph unicode="&#xf8;" d="M8 80l123 106q-33 57 -48 91t-30.5 98.5t-15.5 140.5q0 276 167 438t451 162q158 0 297 -51q61 -25 121 -68l115 99l90 -107l-109 -94q113 -166 113 -369q0 -252 -168 -415.5t-475 -163.5q-106 0 -193.5 23.5t-124 46t-96.5 65.5l-127 -111zM455 551q0 -14 1 -42t1 -42 l344 295q-49 63 -142 63q-205 0 -204 -274zM504 322q14 -23 25.5 -37.5t47 -30.5t85.5 -16q76 0 124 50t62 108.5t14 123.5q0 5 -6 109z" />
<glyph unicode="&#xf9;" d="M82 416v645h422v-578q0 -33 3 -55t16.5 -53t46 -47.5t86 -16.5t86 17.5t46 52.5t16.5 57.5t5 61.5v561h424v-1061h-402v156q-23 -49 -53 -78q-106 -104 -297 -105q-197 2 -293 105q-47 47 -71.5 114.5t-28.5 109.5t-6 114zM283 1483h436l155 -281h-260z" />
<glyph unicode="&#xfa;" d="M82 416v645h422v-578q0 -33 3 -55t16.5 -53t46 -47.5t86 -16.5t86 17.5t46 52.5t16.5 57.5t5 61.5v561h424v-1061h-402v156q-23 -49 -53 -78q-106 -104 -297 -105q-197 2 -293 105q-47 47 -71.5 114.5t-28.5 109.5t-6 114zM463 1202l157 281h434l-329 -281h-262z" />
<glyph unicode="&#xfb;" d="M82 416v645h422v-578q0 -33 3 -55t16.5 -53t46 -47.5t86 -16.5t86 17.5t46 52.5t16.5 57.5t5 61.5v561h424v-1061h-402v156q-23 -49 -53 -78q-106 -104 -297 -105q-197 2 -293 105q-47 47 -71.5 114.5t-28.5 109.5t-6 114zM293 1200l217 283h319l213 -283h-293l-84 135 l-81 -135h-291z" />
<glyph unicode="&#xfc;" d="M82 416v645h422v-578q0 -33 3 -55t16.5 -53t46 -47.5t86 -16.5t86 17.5t46 52.5t16.5 57.5t5 61.5v561h424v-1061h-402v156q-23 -49 -53 -78q-106 -104 -297 -105q-197 2 -293 105q-47 47 -71.5 114.5t-28.5 109.5t-6 114zM236 1239v244h340v-244h-340zM737 1239v244h338 v-244h-338z" />
<glyph unicode="&#xfd;" horiz-adv-x="1193" d="M0 1061h440l105 -457q31 -172 49 -311q16 152 51 323l107 445h438l-387 -1122q-61 -170 -125 -232q-61 -61 -120.5 -75.5t-174.5 -14.5q-106 0 -223 14v301q104 -6 119 -6q90 0 90 51q0 11 -33 109zM398 1202l157 281h434l-329 -281h-262z" />
<glyph unicode="&#xfe;" horiz-adv-x="1280" d="M84 -385v1831h412v-467q98 111 282 111q236 0 349.5 -163t113.5 -403q0 -244 -117.5 -397.5t-349.5 -153.5q-170 0 -274 99v-457h-416zM494 526q0 -94 18 -145q39 -111 145 -111q63 0 109 45q59 59 59 203q1 260 -159 264q-68 4 -111 -43q-61 -57 -61 -213z" />
<glyph unicode="&#xff;" horiz-adv-x="1193" d="M0 1061h440l105 -457q31 -172 49 -311q16 152 51 323l107 445h438l-387 -1122q-61 -170 -125 -232q-61 -61 -120.5 -75.5t-174.5 -14.5q-106 0 -223 14v301q104 -6 119 -6q90 0 90 51q0 11 -33 109zM178 1239v244h340v-244h-340zM679 1239v244h338v-244h-338z" />
<glyph unicode="&#x152;" horiz-adv-x="2260" d="M63 719q0 182 60.5 329.5t160 237.5t220.5 137t250 47q172 0 309 -84v60h1096v-316h-660v-215h615v-315h-615v-285h731v-315h-1167v51q-137 -82 -305 -82q-315 0 -505 212t-190 538zM518 719q0 -184 81 -289.5t220 -105.5q105 -1 244 73v650q-102 72 -219 71 q-141 0 -223 -82q-102 -104 -103 -317z" />
<glyph unicode="&#x153;" horiz-adv-x="2048" d="M39 528q0 250 164 415t454 165q238 0 420 -109q174 109 367 109q262 0 426 -162q70 -70 105.5 -161t42.5 -154.5t10 -171.5h-746q4 -59 14 -86q37 -117 164 -117q43 0 78 13.5t60.5 41t36 41.5t26.5 43l348 -145q-43 -57 -66.5 -86t-81 -73t-128.5 -75q-139 -59 -293 -59 q-86 0 -166 21.5t-118 41t-99 56.5q-178 -117 -402 -117q-160 0 -282.5 50t-193 134t-105.5 181.5t-35 203.5zM461 535q0 -274 192 -275q201 0 201 291q0 111 -43 185.5t-154 72.5q-197 -4 -196 -274zM1290 682h303q0 12 -4 45q-12 53 -53 81t-88 28q-68 0 -113 -45 q-33 -35 -45 -109z" />
<glyph unicode="&#x178;" horiz-adv-x="1622" d="M-6 1446h528l283 -481l278 481h531l-584 -838v-608h-457v608zM412 1552v242h340v-242h-340zM881 1552v242h340v-242h-340z" />
<glyph unicode="&#x2c6;" horiz-adv-x="641" d="M-53 1200l217 283h319l213 -283h-293l-84 135l-81 -135h-291z" />
<glyph unicode="&#x2dc;" horiz-adv-x="641" d="M-59 1204q6 49 10 75t18.5 73t35 71.5t56 45t84.5 20.5q68 0 195 -37q111 -29 119 -29q59 0 59 58h184q-6 -59 -15 -98.5t-29.5 -88.5t-59.5 -73.5t-96.5 -24.5t-175.5 31q-131 33 -154 33q-49 -1 -49 -56h-182z" />
<glyph unicode="&#x2000;" horiz-adv-x="953" />
<glyph unicode="&#x2001;" horiz-adv-x="1907" />
<glyph unicode="&#x2002;" horiz-adv-x="953" />
<glyph unicode="&#x2003;" horiz-adv-x="1907" />
<glyph unicode="&#x2004;" horiz-adv-x="635" />
<glyph unicode="&#x2005;" horiz-adv-x="476" />
<glyph unicode="&#x2006;" horiz-adv-x="317" />
<glyph unicode="&#x2007;" horiz-adv-x="317" />
<glyph unicode="&#x2008;" horiz-adv-x="238" />
<glyph unicode="&#x2009;" horiz-adv-x="381" />
<glyph unicode="&#x200a;" horiz-adv-x="105" />
<glyph unicode="&#x2010;" horiz-adv-x="681" d="M78 473v350h524v-350h-524z" />
<glyph unicode="&#x2011;" horiz-adv-x="681" d="M78 473v350h524v-350h-524z" />
<glyph unicode="&#x2012;" horiz-adv-x="681" d="M78 473v350h524v-350h-524z" />
<glyph unicode="&#x2013;" d="M78 473v350h1165v-350h-1165z" />
<glyph unicode="&#x2014;" horiz-adv-x="1409" d="M78 473v350h1251v-350h-1251z" />
<glyph unicode="&#x2018;" horiz-adv-x="512" d="M70 702v295q2 80 6 123t27.5 106.5t70.5 110.5q39 39 88 63.5t84 33t96 18.5v-182q-57 -18 -86.5 -52t-34 -59.5t-6.5 -71.5h127v-385h-372z" />
<glyph unicode="&#x2019;" horiz-adv-x="512" d="M70 698v181q57 18 86.5 52t34 59.5t6.5 70.5h-127v385h372v-295q-2 -80 -6 -123t-27.5 -106.5t-70.5 -110.5q-55 -55 -116.5 -76.5t-151.5 -36.5z" />
<glyph unicode="&#x201a;" horiz-adv-x="512" d="M70 0v385h372v-295q-2 -80 -6 -123t-27.5 -106.5t-70.5 -110.5q-39 -39 -89 -62.5t-82 -30.5t-97 -19v180q57 18 86.5 52t34 59.5t6.5 70.5h-127z" />
<glyph unicode="&#x201c;" horiz-adv-x="1067" d="M84 702v295q2 80 6 123t28.5 106.5t71.5 110.5q37 39 86.5 63.5t84 33t98.5 18.5v-182q-57 -18 -87 -52t-34 -59.5t-6 -71.5h127v-385h-375zM606 702v295q2 80 6 123t28 106.5t71 110.5q39 39 88 63.5t84 33t96 18.5v-182q-57 -18 -87 -52t-34 -59.5t-6 -71.5h127v-385 h-373z" />
<glyph unicode="&#x201d;" horiz-adv-x="1067" d="M84 698v181q57 18 87 52t34 59.5t6 70.5h-127v385h375v-295q-2 -78 -6 -122t-29 -107.5t-72 -110.5q-53 -55 -114.5 -76.5t-153.5 -36.5zM606 698v181q57 18 87 52t34 59.5t6 70.5h-127v385h373v-295q-2 -80 -6 -123t-27.5 -106.5t-71.5 -110.5q-55 -55 -116.5 -76.5 t-151.5 -36.5z" />
<glyph unicode="&#x201e;" horiz-adv-x="1067" d="M84 0v385h375v-295q-2 -76 -6 -121t-29 -108.5t-72 -110.5q-37 -39 -88 -62.5t-82.5 -30.5t-97.5 -19v180q57 18 87 52t34 59.5t6 70.5h-127zM606 0v385h373v-295q-2 -78 -6 -121t-27.5 -107.5t-71.5 -111.5q-39 -39 -89 -62.5t-81.5 -30.5t-97.5 -19v180q57 18 87 52 t34 59.5t6 70.5h-127z" />
<glyph unicode="&#x2022;" horiz-adv-x="681" d="M25 721q0 131 92 224t225 93t225 -93t92 -224t-92 -224.5t-225 -93.5t-225 93.5t-92 224.5z" />
<glyph unicode="&#x2026;" horiz-adv-x="2048" d="M156 0v385h372v-385h-372zM838 0v385h372v-385h-372zM1520 0v385h372v-385h-372z" />
<glyph unicode="&#x202f;" horiz-adv-x="381" />
<glyph unicode="&#x2039;" horiz-adv-x="468" d="M72 461v375l321 256v-306l-182 -141l182 -137v-303z" />
<glyph unicode="&#x203a;" horiz-adv-x="468" d="M72 205v305l182 141l-182 137v304l321 -256v-375z" />
<glyph unicode="&#x205f;" horiz-adv-x="476" />
<glyph unicode="&#x2122;" horiz-adv-x="1409" d="M0 1309v137h588v-137h-207v-543h-172v543h-209zM643 766v680h217l156 -492l145 492h219v-680h-168l9 362l10 138l-27 -109l-117 -391h-151l-121 393l-29 105l13 -136l10 -362h-166z" />
<glyph unicode="&#xe000;" horiz-adv-x="1060" d="M0 1060h1060v-1060h-1060v1060z" />
<glyph unicode="&#xfb01;" horiz-adv-x="1366" d="M-2 807v229h158v107q2 55 5 81.5t21.5 69.5t50.5 76q94 100 314 100q84 0 221 -26v-289q-39 14 -78 14q-53 0 -79.5 -24.5t-29.5 -46t-3 -62.5h190v-229h-190v-807h-422v807h-158zM854 0v1061h422v-1061h-422zM854 1165v283h422v-283h-422z" />
<glyph unicode="&#xfb02;" horiz-adv-x="1366" d="M-2 807v229h158v105q2 55 5 81.5t21.5 70.5t50.5 77q98 98 314 98q84 0 221 -26v-289q-43 14 -78 14q-41 0 -65.5 -11t-33.5 -34.5t-11 -39t-2 -46.5h190v-229h-190v-807h-422v807h-158zM852 0v1446h424v-1446h-424z" />
</font>
</defs>
</svg>
